<svg width="71.316pt" height="100pt" version="1.1" viewBox="-74 0 71.316 100" xmlns="http://www.w3.org/2000/svg">
 <path id="color-fill" d="m-21.813 50.586h-23.513l-15.335 37.38c-1.683 4.1023 0.4242 8.522 4.1862 10.081h42.603c5.4993 0 9.2407-5.5794 7.1541-10.667z" color="#000000" fill="#a7c5ff" stroke-width=".19531" style="-inkscape-stroke:none"/>
 <path id="outline" d="m-3.4111 86.639-21.146-51.543c-1.1726-2.8595-1.7677-5.8762-1.7677-8.9668v-13.625c0-1.4671 0.57144-2.8465 1.609-3.8841 1.2649-1.265 1.9623-2.9472 1.9623-4.7363v-1.9302c0-1.0788-0.87509-1.9531-1.9531-1.9531h-27.27c-1.0788 0-1.9531 0.87433-1.9531 1.9531v1.9302c0 1.7891 0.69656 3.4714 1.9615 4.7363 1.0376 1.0376 1.609 2.417 1.609 3.8849v13.624c0 3.0907-0.59433 6.1073-1.7677 8.9668l-5.8105 14.163c-0.0023 0.0053-0.0046 0.01069-0.0069 0.01603l-15.329 37.364c-1.2276 2.993-0.88501 6.3843 0.91705 9.0706 1.8021 2.6871 4.8088 4.2908 8.0437 4.2908h51.941c3.2349 0 6.2424-1.6037 8.0444-4.2908 1.8013-2.6871 2.1439-6.0776 0.91629-9.0706zm-45.102-50.061c1.3672-3.3318 2.0599-6.8474 2.0599-10.449v-13.625c0-2.5101-0.97732-4.8706-2.7527-6.646-0.52185-0.52185-0.81177-1.2146-0.81787-1.9516h23.363c-0.0061 0.737-0.29602 1.429-0.81863 1.9516-1.7746 1.7754-2.7527 4.1351-2.7527 6.646v13.624c0 3.6018 0.69351 7.1175 2.0599 10.449l4.7157 11.494h-29.773zm40.941 56.956c-1.091 1.6273-2.8404 2.5604-4.7997 2.5604h-51.941c-1.9585 0-3.7079-0.93308-4.7997-2.5604-0.82321-1.2276-1.1375-2.6512-0.92392-4.055h3.2181c1.078 0 1.9531-0.87509 1.9531-1.9531 0-1.0788-0.87509-1.9531-1.9531-1.9531h-1.7944l2.243-5.4687h3.2944c1.0788 0 1.9531-0.8751 1.9531-1.9531 0-1.0788-0.87433-1.9531-1.9531-1.9531h-1.6914l2.243-5.4687h3.3874c1.0788 0 1.9531-0.87509 1.9531-1.9531 0-1.0788-0.87433-1.9531-1.9531-1.9531h-1.7845l2.2438-5.4687h3.479c1.0788 0 1.9531-0.8751 1.9531-1.9531 0-1.0788-0.87433-1.9531-1.9531-1.9531h-1.8768l2.2438-5.4687h32.977l14.828 36.143c0.7431 1.812 0.54397 3.7849-0.54703 5.4115z" color="#000000" stroke-dasharray="10" stroke-width=".19531" style="-inkscape-stroke:none"/>
 <path id="dot-accent" d="m-13.056 86.761c-0.40894-0.99869-1.5488-1.4763-2.5475-1.0681-0.99792 0.40893-1.4763 1.5488-1.0681 2.5475l0.01069 0.02442c0.30975 0.75607 1.0384 1.2138 1.8082 1.2138 0.24644 0 0.49668-0.04654 0.73929-0.14572 0.99793-0.40894 1.4763-1.5495 1.0674-2.5475z" stroke-dasharray="0" style=""/>
 <path id="line-accent" d="m-15.816 80.032-6.9946-17.049c-0.40894-0.99793-1.5495-1.4755-2.5482-1.0658-0.99792 0.40894-1.4748 1.5503-1.0658 2.5482l6.9946 17.049c0.30975 0.75607 1.0384 1.2123 1.8082 1.2123 0.24644 0 0.49744-0.04654 0.74005-0.14648 0.99792-0.40894 1.4755-1.5503 1.0658-2.5482z" color="#000000" stroke-width=".19531" style="-inkscape-stroke:none"/>
</svg>
